<?xml version="1.0" encoding="UTF-8" standalone="no"?>
<!-- Created with Inkscape (http://www.inkscape.org/) -->

<svg
   xmlns:dc="http://purl.org/dc/elements/1.1/"
   xmlns:cc="http://creativecommons.org/ns#"
   xmlns:rdf="http://www.w3.org/1999/02/22-rdf-syntax-ns#"
   xmlns:svg="http://www.w3.org/2000/svg"
   xmlns="http://www.w3.org/2000/svg"
   xmlns:sodipodi="http://sodipodi.sourceforge.net/DTD/sodipodi-0.dtd"
   xmlns:inkscape="http://www.inkscape.org/namespaces/inkscape"
   width="51.141129mm"
   height="13.732064mm"
   viewBox="0 0 181.20872 48.65692"
   id="svg2"
   version="1.1"
   inkscape:version="0.91 r13725"
   sodipodi:docname="logo.svg"
   inkscape:export-filename="C:\Users\Saul\Documents\GitKraken\uwuscript\assets\logo.png"
   inkscape:export-xdpi="254.29242"
   inkscape:export-ydpi="254.29242">
  <defs
     id="defs4" />
  <sodipodi:namedview
     id="base"
     pagecolor="#ffffff"
     bordercolor="#666666"
     borderopacity="1.0"
     inkscape:pageopacity="0.0"
     inkscape:pageshadow="2"
     inkscape:zoom="2.8"
     inkscape:cx="-46.848059"
     inkscape:cy="12.495856"
     inkscape:document-units="px"
     inkscape:current-layer="layer1"
     showgrid="false"
     fit-margin-top="0"
     fit-margin-left="0"
     fit-margin-right="0"
     fit-margin-bottom="0"
     inkscape:window-width="1920"
     inkscape:window-height="1017"
     inkscape:window-x="-8"
     inkscape:window-y="-8"
     inkscape:window-maximized="1" />
  <metadata
     id="metadata7">
    <rdf:RDF>
      <cc:Work
         rdf:about="">
        <dc:format>image/svg+xml</dc:format>
        <dc:type
           rdf:resource="http://purl.org/dc/dcmitype/StillImage" />
        <dc:title></dc:title>
      </cc:Work>
    </rdf:RDF>
  </metadata>
  <g
     inkscape:label="Layer 1"
     inkscape:groupmode="layer"
     id="layer1"
     transform="translate(-83.338961,-240.76221)">
    <path
       inkscape:connector-curvature="0"
       id="path3341"
       style="font-style:normal;font-variant:normal;font-weight:normal;font-stretch:normal;font-size:medium;line-height:125%;font-family:abeatbyKai;-inkscape-font-specification:abeatbyKai;letter-spacing:0px;word-spacing:0px;fill:#162d50;fill-opacity:1;stroke:none;stroke-width:1px;stroke-linecap:butt;stroke-linejoin:miter;stroke-opacity:1"
       d="m 108.73143,261.80221 q 0,4.44 -2.88,7.4 -2.84,2.96 -7.200004,2.96 -4.36,0 -7.24,-2.96 -2.84,-2.96 -2.84,-7.4 l 0,-13 3.08,0 0,13.36 q 0,2.88 2.08,4.96 2.12,2.04 4.92,2.04 2.800004,0 4.880004,-2.04 2.12,-2.08 2.12,-4.96 l 0,-13.36 3.08,0 0,13 z" />
    <path
       inkscape:connector-curvature="0"
       id="path3343"
       style="font-style:normal;font-variant:normal;font-weight:normal;font-stretch:normal;font-size:medium;line-height:125%;font-family:abeatbyKai;-inkscape-font-specification:abeatbyKai;letter-spacing:0px;word-spacing:0px;fill:#162d50;fill-opacity:1;stroke:none;stroke-width:1px;stroke-linecap:butt;stroke-linejoin:miter;stroke-opacity:1"
       d="m 145.06861,248.80221 -8.56,22.8 -3.56,0 -4.96,-15.08 -4.68,15.08 -3.48,0 -8.64,-22.8 3.24,0 7.08,19 5.28,-16.24 2.6,0 5.2,16.12 7.2,-18.88 3.28,0 z" />
    <path
       inkscape:connector-curvature="0"
       id="path3345"
       style="font-style:normal;font-variant:normal;font-weight:normal;font-stretch:normal;font-size:medium;line-height:125%;font-family:abeatbyKai;-inkscape-font-specification:abeatbyKai;letter-spacing:0px;word-spacing:0px;fill:#162d50;fill-opacity:1;stroke:none;stroke-width:1px;stroke-linecap:butt;stroke-linejoin:miter;stroke-opacity:1"
       d="m 167.95018,261.80221 q 0,4.44 -2.88,7.4 -2.84,2.96 -7.2,2.96 -4.36,0 -7.24,-2.96 -2.84,-2.96 -2.84,-7.4 l 0,-13 3.08,0 0,13.36 q 0,2.88 2.08,4.96 2.12,2.04 4.92,2.04 2.8,0 4.88,-2.04 2.12,-2.08 2.12,-4.96 l 0,-13.36 3.08,0 0,13 z" />
    <path
       inkscape:connector-curvature="0"
       id="path3347"
       style="font-style:normal;font-variant:normal;font-weight:normal;font-stretch:normal;font-size:medium;line-height:125%;font-family:abeatbyKai;-inkscape-font-specification:abeatbyKai;letter-spacing:0px;word-spacing:0px;fill:#2c5aa0;fill-opacity:1;stroke:none;stroke-width:1px;stroke-linecap:butt;stroke-linejoin:miter;stroke-opacity:1"
       d="m 184.88643,264.80221 q 0.24,3.08 -2.16,5.36 -2.4,2.24 -5.52,2.04 -2.88,-0.2 -4.84,-2.32 -1.92,-2.12 -1.92,-5.04 l 3.16,0 0,0.76 q 0,1.16 1.28,2.4 1.28,1.24 2.72,1.2 1.92,-0.04 3.04,-1.16 1,-1.04 1.04,-2.72 0.04,-2.92 -3.32,-4 l -2.68,-0.84 q -4.2,-1.32 -4.4,-5.72 -0.12,-2.64 1.76,-4.52 1.92,-1.88 4.6,-2 2.32,-0.12 4.32,1.52 2.04,1.6 2.2,4 l 0.04,0.68 -3.2,0 0,-0.52 q 0,-1.2 -1.04,-1.92 -1,-0.76 -2.32,-0.76 -1.28,0.04 -2.24,0.92 -0.92,0.88 -0.96,2.2 -0.16,2.44 2.92,3.48 l 2.64,0.88 q 4.56,1.56 4.88,6.08 z" />
    <path
       inkscape:connector-curvature="0"
       id="path3349"
       style="font-style:normal;font-variant:normal;font-weight:normal;font-stretch:normal;font-size:medium;line-height:125%;font-family:abeatbyKai;-inkscape-font-specification:abeatbyKai;letter-spacing:0px;word-spacing:0px;fill:#2c5aa0;fill-opacity:1;stroke:none;stroke-width:1px;stroke-linecap:butt;stroke-linejoin:miter;stroke-opacity:1"
       d="m 210.53174,264.88221 -0.32,0.68 q -3.6,6.64 -11.12,6.56 -4.96,-0.04 -8.56,-3.48 -3.6,-3.44 -3.64,-8.36 -0.08,-4.96 3.52,-8.48 3.64,-3.56 8.68,-3.64 3.6,-0.04 6.72,1.88 2.96,1.84 4.24,4.64 l 0.44,1 -3.44,0 q -2.56,-4.4 -7.84,-4.52 -3.52,-0.08 -6.32,2.56 -2.92,2.72 -2.92,6.44 0,3.72 2.72,6.4 2.72,2.64 6.44,2.6 5.32,-0.08 7.96,-4.28 l 3.44,0 z" />
    <path
       inkscape:connector-curvature="0"
       id="path3351"
       style="font-style:normal;font-variant:normal;font-weight:normal;font-stretch:normal;font-size:medium;line-height:125%;font-family:abeatbyKai;-inkscape-font-specification:abeatbyKai;letter-spacing:0px;word-spacing:0px;fill:#2c5aa0;fill-opacity:1;stroke:none;stroke-width:1px;stroke-linecap:butt;stroke-linejoin:miter;stroke-opacity:1"
       d="m 221.12518,251.40221 q -2.12,0.08 -3.44,1.16 -1.32,1.08 -1.8,1.88 -0.76,1.32 -0.76,3.52 l 0,13.64 -3.2,0 0,-22.8 2.84,0 0,3.24 q 0.96,-1.84 2.84,-2.84 1.72,-0.92 3.52,-0.84 l 0,3.04 z" />
    <path
       inkscape:connector-curvature="0"
       id="path3353"
       style="font-style:normal;font-variant:normal;font-weight:normal;font-stretch:normal;font-size:medium;line-height:125%;font-family:abeatbyKai;-inkscape-font-specification:abeatbyKai;letter-spacing:0px;word-spacing:0px;fill:#2c5aa0;fill-opacity:1;stroke:none;stroke-width:1px;stroke-linecap:butt;stroke-linejoin:miter;stroke-opacity:1"
       d="m 226.4933,246.08221 -3,0 0,-5.32 3,0 0,5.32 z m 0,25.52 -3,0 0,-22.8 3,0 0,22.8 z" />
    <path
       inkscape:connector-curvature="0"
       id="path3355"
       style="font-style:normal;font-variant:normal;font-weight:normal;font-stretch:normal;font-size:medium;line-height:125%;font-family:abeatbyKai;-inkscape-font-specification:abeatbyKai;letter-spacing:0px;word-spacing:0px;fill:#2c5aa0;fill-opacity:1;stroke:none;stroke-width:1px;stroke-linecap:butt;stroke-linejoin:miter;stroke-opacity:1"
       d="m 253.30143,260.16221 q 0,5 -3.56,8.6 -3.56,3.56 -8.48,3.4 -5.04,-0.2 -8.44,-4.04 l 0,11.48 -2.96,0 0,-19.24 q 0,0 0,-0.04 0,-0.08 0,-0.12 0,-4.92 3.56,-8.48 3.6,-3.6 8.52,-3.44 4.76,0.12 8.04,3.6 3.32,3.48 3.32,8.28 z m -3.04,0.24 q 0.04,-3.6 -2.4,-6.28 -2.44,-2.72 -5.96,-2.84 -3.76,-0.2 -6.44,2.6 -2.64,2.8 -2.56,6.56 0.08,3.6 2.56,6.16 2.48,2.56 6,2.56 3.6,0 6.16,-2.56 2.56,-2.56 2.64,-6.2 z" />
    <path
       inkscape:connector-curvature="0"
       id="path3357"
       style="font-style:normal;font-variant:normal;font-weight:normal;font-stretch:normal;font-size:medium;line-height:125%;font-family:abeatbyKai;-inkscape-font-specification:abeatbyKai;letter-spacing:0px;word-spacing:0px;fill:#2c5aa0;fill-opacity:1;stroke:none;stroke-width:1px;stroke-linecap:butt;stroke-linejoin:miter;stroke-opacity:1"
       d="m 264.54768,272.08221 q -8.32,0 -8.32,-7.08 l 0,-24.2 3.08,0 0,7.96 5.24,0 0,2.84 -5.24,0 0,12.88 q 0,5.08 5.24,5.08 l 0,2.52 z" />
    <path
       style="opacity:1;fill:#c8ab37;fill-opacity:1;fill-rule:evenodd;stroke:none;stroke-width:1;stroke-linecap:butt;stroke-miterlimit:3;stroke-dasharray:none;stroke-dashoffset:0"
       d="m 106.96344,271.01957 c -0.69735,0.68226 -1.47691,1.27507 -2.3207,1.76476 l 10.16915,11.52044 z m -16.029267,0.42735 -7.595212,12.85785 9.92778,-11.24741 c -0.839622,-0.44078 -1.622834,-0.98153 -2.332568,-1.61044 z m 9.581557,2.80935 c -0.596081,0.0957 -1.19865,0.14529 -1.802356,0.14841 -0.3574,-10e-4 -0.714546,-0.0193 -1.070326,-0.0533 l 1.432376,15.06775 1.440306,-15.16271 z"
       id="path3380"
       inkscape:connector-curvature="0"
       sodipodi:nodetypes="cccccccccccccc" />
    <path
       style="opacity:1;fill:#c8ab37;fill-opacity:1;fill-rule:evenodd;stroke:none;stroke-width:1;stroke-linecap:butt;stroke-miterlimit:3;stroke-dasharray:none;stroke-dashoffset:0"
       d="m 166.11533,271.01957 c -0.69735,0.68226 -1.47691,1.27507 -2.32069,1.76476 l 10.16915,11.52044 z m -16.02927,0.42735 -7.59521,12.85785 9.92778,-11.24741 c -0.83962,-0.44078 -1.62284,-0.98153 -2.33257,-1.61044 z m 9.58156,2.80935 c -0.59608,0.0957 -1.19864,0.14529 -1.80236,0.14841 -0.3574,-10e-4 -0.71455,-0.0193 -1.07033,-0.0533 l 1.43238,15.06775 1.44031,-15.16271 z"
       id="path3380-0"
       inkscape:connector-curvature="0"
       sodipodi:nodetypes="cccccccccccccc" />
  </g>
</svg>
